<svg width="100" height="100" viewBox="0 0 100 100" fill="none" xmlns="http://www.w3.org/2000/svg">
<g clip-path="url(#clip0_0_1)">
<path d="M21.569 61.8923C21.569 47.7182 23.0061 34.0197 26.3763 20.218C27.0504 17.4574 29.238 20.7605 30.0997 21.8262C36.7708 30.0765 42.9513 38.7522 49.5034 47.1035C51.4706 49.6109 53.368 52.4456 55.7965 54.5503C56.106 54.8186 57.9853 56.4561 58.2613 56.2984C58.7146 56.0393 59.1802 54.7585 59.2577 54.5678C60.7298 50.9442 61.5264 47.0117 62.4043 43.2227C65.4003 30.2915 68.1544 17.3408 70.6552 4.31041" stroke="white" stroke-width="10" stroke-linecap="round"/>
<path d="M17.1639 83.2888C18.8932 84.3578 26.6923 87.3186 26.9007 83.5685C26.9553 82.5853 27.0499 81.4284 26.8482 80.4569C26.569 79.1116 24.4906 79.3191 23.457 79.2682C20.6072 79.1281 18.5929 80.3422 16.3423 82.0302C14.0843 83.7237 13.3188 84.3858 13.4055 87.0297C13.5836 92.4639 15.612 96.1163 20.9397 97.4483" stroke="white" stroke-width="5" stroke-linecap="round"/>
<path d="M37.3018 80.4569C39.133 81.3021 40.9618 84.1963 42.3013 85.5264C45.8927 89.0924 49.7702 92.3342 53.6638 95.5603" stroke="white" stroke-width="5" stroke-linecap="round"/>
<path d="M50.5173 82.9742C48.3828 87.1765 46.2567 91.3718 43.8396 95.4205C43.5286 95.9415 43.4285 96.2728 42.9656 96.5043" stroke="white" stroke-width="5" stroke-linecap="round"/>
<path d="M69.7112 84.2328C75.7116 83.6827 80.9802 81.963 86.7026 80.1423" stroke="white" stroke-width="5" stroke-linecap="round"/>
<path d="M82.6121 67.8707V94.931" stroke="white" stroke-width="5" stroke-linecap="round"/>
</g>
<defs>
<clipPath id="clip0_0_1">
<rect width="100" height="100" fill="white"/>
</clipPath>
</defs>
</svg>
