<svg width="100" height="100" viewBox="0 0 100 100" fill="none" xmlns="http://www.w3.org/2000/svg">
<g clip-path="url(#clip0_0_1)">
<path d="M50.8152 30.6976C46.9452 32.066 43.4945 33.4219 41.5705 37.3381C41.2214 38.0487 39.4501 42.42 40.5126 43.2951C42.5364 44.9617 45.2745 43.4539 46.7137 41.9604C48.4437 40.1652 50.3069 37.298 49.0574 34.7991" stroke="#0099CC" stroke-width="5" stroke-linecap="round"/>
<path d="M17.1243 34.2132C34.4889 28.153 52.6983 24.6253 71.0298 23.2433C78.9461 22.6464 85.4604 22.5037 93.116 23.4711C94.5856 23.6568 98.1204 23.8424 97.8523 26.3357C97.2914 31.5517 92.6977 37.2897 88.868 40.5282C83.9482 44.6886 76.0057 46.481 69.9556 47.8848C58.2014 50.6122 45.5965 51.6777 33.6279 49.8217C25.8765 48.6196 18.4212 45.8793 10.8093 44.0438C9.77951 43.7954 7.71857 43.7926 9.06774 42.3185C12.8301 38.2078 18.9569 36.6722 23.8625 34.5061" stroke="#0099CC" stroke-width="5" stroke-linecap="round"/>
<path d="M53.1589 14.2916C51.0324 15.9928 49.0591 18.0943 47.202 20.0532C40.1284 27.5146 33.3928 35.3787 26.9549 43.3927C24.0597 46.9967 21.776 50.4961 20.0214 54.7532C18.4575 58.5474 17.4336 62.5245 16.2291 66.4393C15.2934 69.4802 14.2508 72.4786 13.6901 75.6188C13.5738 76.2699 13.0672 78.1011 13.3483 78.874C13.7566 79.9967 15.7757 78.8662 16.9127 78.4996C29.6451 74.3947 41.4725 66.3613 51.8894 58.1712C59.6682 52.0553 67.2506 45.027 72.2342 36.3616C73.8696 33.5178 74.5295 30.789 74.5453 27.5726C74.5656 23.4698 72.7328 19.6463 69.3534 17.1561C64.7085 13.7336 57.1101 11.0014 53.1589 16.9282" stroke="#0099CC" stroke-width="5" stroke-linecap="round"/>
<path d="M36.4599 12.8268C38.6106 13.4003 40.7306 14.9673 42.5796 16.0819C47.85 19.2591 53.0758 22.5168 57.9115 26.3357C66.4672 33.0924 75.9513 39.4286 82.6833 48.1127C85.1895 51.3458 87.1356 54.8271 88.9006 58.513C89.5786 59.9287 94.0583 67.2936 91.993 68.8969C90.8314 69.7987 87.4087 69.6743 86.4918 69.6782C83.0243 69.6926 80.8195 69.644 77.4099 68.604C72.7049 67.1688 69.1122 64.9962 64.8287 62.5005C56.6609 57.7418 48.6323 52.6406 40.7893 47.364C32.7657 41.9659 25.1015 36.0381 18.2636 29.2002C14.7738 25.7105 8.25466 21.2242 9.91409 15.3332C10.9746 11.5683 15.5555 9.68044 19.0285 10.9062C24.271 12.7565 29.1492 15.9096 34.1162 18.3931" stroke="#0099CC" stroke-width="5" stroke-linecap="round"/>
<path d="M22.6906 80.7945C24.2487 86.6376 24.1554 104.924 24.1554 98.877C24.1554 95.4552 24.5104 92.0478 25.0669 88.672C25.6781 84.9638 26.3239 80.9725 27.8663 77.5068C28.2016 76.7536 29.0228 74.7555 30.0798 74.6423C31.9452 74.4424 34.915 76.2249 35.4997 77.9788C36.6311 81.373 34.8363 87.3968 31.2517 88.6395C30.1659 89.0159 26.4289 88.8334 26.9874 90.4624C28.0457 93.549 30.4575 97.2619 32.9444 99.2513" stroke="#0099CC" stroke-width="5" stroke-linecap="round"/>
<path d="M43.4911 90.4624C47.8118 90.4624 51.6623 90.293 52.8008 85.6122C53.2804 83.6407 48.7852 83.4709 47.8204 83.301C47.4199 83.2305 41.2311 81.7041 40.9195 82.3896C40.0896 84.2154 41.2884 87.9677 41.9286 89.6323C42.9307 92.2378 44.6479 94.9153 46.2905 97.168C47.7162 99.1233 54.0167 101.815 54.9167 98.6654" stroke="#0099CC" stroke-width="5" stroke-linecap="round"/>
<path d="M70.1509 88.1187C68.5969 88.1187 66.9637 88.485 65.5936 89.2254C64.0685 90.0496 59.4822 94.2013 61.7851 96.2566C62.9758 97.3192 66.5374 98.2447 67.7746 96.8425C68.9286 95.5347 69.5764 93.854 70.0207 92.2039C70.4048 90.777 70.334 91.4454 70.5252 92.4969C70.8888 94.4965 72.0979 96.689 73.9268 97.7051C75.1154 98.3654 77.3796 98.4608 77.7679 96.9076" stroke="#0099CC" stroke-width="5" stroke-linecap="round"/>
<path d="M92.7091 86.9468C91.9249 85.5526 88.4754 86.7492 87.3381 87.2398C85.0006 88.2481 86.2229 92.9541 86.9963 94.4337C87.808 95.9864 89.6067 97.3475 91.3583 97.4773C92.3973 97.5542 94.4669 98.0146 94.4669 96.6146" stroke="#0099CC" stroke-width="5" stroke-linecap="round"/>
</g>
<defs>
<clipPath id="clip0_0_1">
<rect width="100" height="100" fill="white"/>
</clipPath>
</defs>
</svg>
